<?xml version="1.0" encoding="utf-8"?>
<!-- Generator: Adobe Illustrator 20.1.0, SVG Export Plug-In . SVG Version: 6.00 Build 0)  -->
<svg version="1.1" id="Layer_1" xmlns="http://www.w3.org/2000/svg" xmlns:xlink="http://www.w3.org/1999/xlink" x="0px" y="0px"
	 viewBox="0 0 512 167.9" style="enable-background:new 0 0 512 167.9;" xml:space="preserve">
<style type="text/css">
	.st0{fill:#1825AA;}
</style>
<path class="st0" d="M486.6,110.8c0,2.5-0.4,2.6-1.6,2.9h-15.3c-1.1,0.1-2.2-0.6-2.2-1.9l0-20.2c-0.3-0.4-0.5-0.9-1-1
	c-0.5,0-0.9,0.1-1.2,0.4l-0.4,0.8l0,19.6c0,1.2-0.5,2.4-2.5,2.3h-14.1c-0.9,0.1-2.9,0-3-1.9l0.1-19.9c-0.2-0.7,0-1.4-1.3-1.4
	l-1.9-0.1c-1,0.1-1.1-0.5-1.1-1.1V85c0.2-0.8,0.4-1,2.5-1h8.9c1.4,0,1.2,1.6,1.2,1.6l0,20.2c0.1,0.4,0.2,1,0.7,1.2
	c0.6,0.3,1.1,0.2,1.7,0.1c0,0,0.8-0.3,0.8-1.4l0-17.8c0-1.3,0.1-3.4,2.9-3.8c2.3,0,9.7,0,12.6,0c1.5,0,2.9,0.3,3.2,1.8l0,20.5
	c0.1,0.4,0.4,0.8,0.8,0.9c0.7,0.2,1.2,0.1,1.6-0.4l0.3-0.4l0.2-6.2l0-14.7c0-1.1-0.1-1.6,1.3-1.6h5.6c0.9,0.1,1.3,0.4,1.3,1.3
	L486.6,110.8"/>
<path class="st0" d="M438.8,112.3c0.1,1.2-0.7,1.3-1.2,1.2h-6.2c0,0-1.2,0.1-1.2-1.4l-0.1-20.6c-0.1-0.7-0.4-0.7-0.9-1.2
	c-0.8-0.3-1.3-0.2-2.2-0.1c-1.6,0.5-0.9,2.5-1,3.8l0,16.7c0,2,0.2,2.7-1.5,2.7h-16.1c-1.2,0-2.5-0.1-2.5-2.8l-0.1-19.2
	c-0.1-0.7-0.3-1.3-1.2-1.4c0,0-1.7,0.1-2.4,0c-0.8-0.1-0.8-1-0.8-1l0-4.2c0-0.9,1.4-0.9,1.4-0.9l9.8,0c0,0,1.4,0.1,1.5,1.6l0,20.6
	c0,0.5,0.4,0.9,0.8,1.2c0.7,0.3,1.6,0.2,2.3-0.1c0.5-0.3,0.7-0.6,0.6-1.3l0-19.6c0.1-0.9,0.3-2.4,2.2-2.4h14.7
	c3.2-0.1,4.1,0.5,4.1,3L438.8,112.3"/>
<path class="st0" d="M402,113.1c0,0.6-0.5,0.6-1,0.6l-10.6,0c-1.1,0.1-1.4-0.3-1.7-1l0-27.8c0,0-0.1-0.7,0.7-0.7h7.1l0.8,0.5
	l-0.1,21.2c0.1,0.8,0,1.6,0.8,1.9c0,0,2.7,0,3.4,0c0.7,0,0.7,0.8,0.7,0.8L402,113.1"/>
<path class="st0" d="M385.1,110.9c-0.2,1.2-0.9,2.4-2.1,2.8l-20.6-0.1c-1.6,0-1.8-0.6-2.2-1.7c0,0,0-7,0.1-10.5
	c0-0.4,0.5-1.1,0.8-1.1c0.9-0.1,6.4,0,6.4,0c1.1,0,1,0.6,1.2,1.4v4.8c0.2,0.2,0.4,1,1.6,1l4.9,0c1,0.1,1.2-0.6,1.4-1.3l0-14.5
	c0.1-0.9-0.4-1.7-1.8-1.6l-3.6,0.1c-0.7-0.1-1.6,0.2-1.7-1c0,0,0-2.8,0-4.8l0.4-0.3l13-0.1c1.1,0.2,2.1,0.5,2.2,2.2L385.1,110.9"/>
<path class="st0" d="M356.7,111.6c0.1,1.6-1.2,1.8-2.2,2l-12.7,0c-0.6,0.1-1,0.1-1.1-0.7c0-0.8,0-2.8,0-4.6c0,0-0.2-0.9,1-0.9
	l5.3-0.1c1,0,1.4-0.5,1.3-1.5c0,0-0.1-3.9,0-5.2c-0.2-0.7-0.6-1.2-1.3-1.4l-12.3,0c-1.6,0-2.4-0.7-2.5-2.3l0-9.8c-0.1-2.3,1-3,2.9-3
	h20.4c0.3,0.1,1.2,0,1.2,1.6v3.6c0,1.3-1.2,1.1-2,1.2l-13.3,0.1c-0.7,0.2-0.9,0.7-1,1.4c-0.1,0.7,0.3,1,0.7,1.4
	c0.8,0.4,1.9,0.1,2.9,0.2l10.9-0.1c1.6,0.1,1.7,1,1.7,2.9V111.6"/>
<path class="st0" d="M356.6,128.7c-0.6,0.6-1.5,0.3-2.2,0.5l-5.2-0.1c-0.3-0.2-0.7-0.1-0.7-0.5c-0.6-1.9,0.9-5-1.3-6
	c-1.9-0.4-4.2,0-6.1-0.4c-0.2-1.7-0.1-3.7-0.1-5.5l0.3-0.3c4.3-0.1,8.7-0.1,13,0c0.8,0.4,1.7,0.7,2,1.6c0.2,0.5,0.4,1.1,0.4,1.7
	L356.6,128.7"/>
<path class="st0" d="M329.3,112.6c0,0,0,1-0.9,1H322c-1.1,0-0.8-0.9-0.9-1.3l0-19.6c-0.1-0.9-0.9-2-1.8-2.2h-5.7
	c-1.2,0-1.3,0.7-1.4,1l0,21.5c0,0,0.2,0.6-0.9,0.6c0,0-6.4,0.2-7.1,0.1c-0.7-0.1-0.6-1-0.6-1V85.2c-0.1-0.8,0.4-1.1,1.5-1.1h20.2
	c3,0,4.1,0.7,4.1,4.4V112.6"/>
<path class="st0" d="M299.2,111.9c0,1.2-0.3,1.7-1.7,1.7h-13.4c-1.8,0-1.6-0.5-1.6-0.8c0,0-0.1-2.9-0.1-4.2c0-1.2,0.9-1.4,0.9-1.4
	l5.4,0c0.6,0,1.9,0.4,1.9-1.2v-4.2c0-1.8-0.3-2-1.6-2l-12.1,0c-0.3-0.3-0.7-0.1-1-0.3c-0.9-0.4-1.3-1.2-1.5-2V87.2
	c-0.1-1.5,0.4-3.1,4.3-3.1l17.6,0c2,0,2.9-0.3,2.9,1.5v4.1c0,1.2-0.9,1.2-2.2,1.1l-12.3,0c-0.5,0.1-1.1,0.3-1.3,0.8
	c-0.2,0.5-0.3,1.3,0,1.9l0.7,0.4l13-0.1c1.6,0.2,2.2,2.4,2.2,3.4L299.2,111.9"/>
<path class="st0" d="M271.4,112.2c0,0,0.2,1.4-1.2,1.4h-6.1c-1,0-1.2-1-1.2-1l0-20.1c0-0.6,0.1-1.7-1.2-1.8l-5.6-0.1
	c-1.9,0.1-1.2,1.1-1.3,1.7c0,0,0.4,1.5-1.2,1.3h-6.4c0,0-1,0.1-1-0.9v-7c0.1-2.1,1.5-1.7,2.6-1.7l20.2,0c1.1,0.2,2.2,1.1,2.4,2.1
	L271.4,112.2"/>
<path class="st0" d="M208.2,112.2c0,0,0.2,1.4-1.2,1.4H201c-1,0-1.2-1-1.2-1l0-20.1c0-0.6,0.1-1.7-1.2-1.8l-5.6-0.1
	c-1.9,0.1-1.2,1.1-1.3,1.7c0,0,0.4,1.5-1.2,1.3h-6.4c0,0-1,0.1-1-0.9v-7c0.1-2.1,1.5-1.7,2.6-1.7l20.2,0c1.1,0.2,2.2,1.1,2.4,2.1
	L208.2,112.2"/>
<path class="st0" d="M243.3,112.3c0,0,0.1,1.3-0.9,1.3c-1.7,0-6.1,0-6.6,0c-0.9-0.1-0.9-1.2-0.9-1.2l0.1-19.8
	c-0.1-0.6-0.3-1.2-0.9-1.5l-0.8-0.3h-12.7c-0.7,0.2-1.1,0.6-1.3,1.2l0,13.7c0.1,0.6,0.6,1.1,1.1,1.4c0.8-0.1,1.5,0.2,2.1-0.3
	l0.4-0.7l0.1-9.7c0-0.6-0.3-2.1,1.7-2.3h6.6c1.5,0,1.5,0.8,1.5,0.8c0.1,1.7,0,4.5,0,4.5c0.1,0.7-1.3,0.7-1.9,0.7
	c-0.5,0.1-1,0.5-0.9,1.6v10.3c-0.2,1.5-2.1,1.5-3.2,1.6h-12.5c-1-0.2-2.4-0.1-2.6-1.8l0-26c0.1-1.3,1.2-1.7,2.2-1.7h27
	c0.9,0.3,1.3,0.9,1.8,1.8c0.2,0.6,0.3,1.2,0.4,1.8L243.3,112.3"/>
<path class="st0" d="M189.4,113.6l-14.2,0.1c-1.6,0-1.9-1.2-2.2-2c-0.1-2.7,0-5.4-0.3-8c-0.1-0.5-0.5-0.7-0.9-0.8
	c-0.5,0-0.8,0.2-1.1,0.4l-0.4,0.8l0,7.4c0.1,2.2-1.2,2.2-2.2,2.2l-13.9,0c-0.8-0.2-1.4-0.6-1.8-1.2c-0.7-2.1-0.4-4.8-0.5-7
	c0-4.6,0-9.1-0.3-13.6c-0.5-1.3-3.2-1.1-3.2-1.1c-0.5,0.2-1-0.1-1-0.8l0.1-4.3c0-0.8,0.2-1.4,0.4-1.5h9.8c1.3,0.2,2.1,1.2,2.5,2.4
	c0.1,1,0.2,3.4,0.2,3.4c0.1,3.3,0.4,16.1,0.4,16.1c0.1,0.4,0.5,0.8,0.8,1c0.5,0.1,1.2,0.1,1.6-0.3l0.4-0.9c0.1-2.8-0.5-5.9,0.3-8.5
	c1-1.4,3.1-1.2,4.7-1.2c1.2,0,2.9,0.1,4.1-0.4l0.3-0.7c0,0,0-9.2,0-9.9c-0.1-1.4,0.6-1.1,0.6-1.1h6.9c0.9,0,1.2,0.2,1.1,1.1
	l0.1,10.3c0.2,0.2,0.3,0.4,0.5,0.5l6.9,0.2c1.1,0.1,1.9,0.5,2.2,1.7l0,13.6C190.9,112.9,190.5,113.6,189.4,113.6 M184.2,106.1
	c0.1-1,0.3-2.3-0.5-3c-0.3-0.2-0.9-0.2-1.4-0.2c-0.6,0-0.9,0.6-1,1.1c0,1.1-0.2,2.5,0.9,3c0.4,0.2,1,0,1.5-0.1
	C184,106.7,184.1,106.5,184.2,106.1"/>
<path class="st0" d="M144.5,110.4c-0.1,1-0.6,2-1.5,2.5c-0.7,0.4-1.3,0.7-2.2,0.7h-20.5c-1.8-0.2-3.6-0.4-4.5-2.2
	c-0.2-2.8-0.5-5.7-0.2-8.6l0.8-0.4c2.5-0.1,5.6-0.1,7.6,0c0.9,1.4-0.5,4,1.6,4.5c2.8,0.2,6,0.2,8.9,0.1c0.4,0,0.8-0.2,1.2-0.3
	c1-1.2,0.3-3.2,0.5-4.7c0.1-0.7-0.4-1.4-0.9-1.7c-2.1-0.4-4.5-0.2-6.7-0.1l-10.5,0.1c-1.3-0.4-2.2-1.3-2.4-2.7
	c-0.1-3.6-0.1-6.9,0-10.5c0.2-1.7,0.6-2.7,2.1-3.1h25.3c0.4,0.1,1.2,0.4,1.1,1.4v4.6c0,0,0,0.8-1.4,0.8c-1.2,0-17.3,0.1-17.3,0.1
	c-0.5,0-1,0.5-1.1,0.9c0,0.6-0.1,1.1,0.4,1.5l0.6,0.4c6,0.3,10.8-0.2,17,0.1c1.2,0.3,1.9,1.3,2,2.4L144.5,110.4"/>
<path class="st0" d="M96.7,81.6c-0.9-3.4-2.2-5.8-4.3-9.7c-0.7-1.1-1.5-2.3-2.3-3.6c-9-13.4-26.8-36.7-28.4-38.2l-0.2-0.1l-0.2,0.1
	C59.6,31.7,41.9,55,32.8,68.4c-0.8,1.3-1.7,2.5-2.3,3.6c-2.1,3.8-3.4,6.3-4.3,9.7c-1.1,4.9-1.2,10.9-0.2,15.9
	c0.9,4.4,5,8.8,9.2,12.1l6.4,5.1c0,0,17.8,12.8,19.5,13.6l0.3,0.1l0.3-0.1c1.7-0.8,19.5-13.6,19.5-13.6l6.4-5.1
	c4.2-3.3,8.3-7.8,9.2-12.1C97.9,92.5,97.8,86.5,96.7,81.6 M55.9,115.1l-0.6,0.1c-1-0.7-3.6-2.6-3.6-2.6c-4.4-3.3-8.9-6.3-13.1-9.7
	c-6.5-7.2-5.9-14.3-3.9-21.5c0.1-0.5,0.3-1.2,0.9-1.3c1.8,2.7,5.7,8.3,5.7,8.3c3.8,5.5,8.4,10.4,12.8,15.5
	C57,106.6,55.8,111.2,55.9,115.1 M61.5,100.9l-0.4-0.2c-5.7-6.7-12-14.2-17.7-21c-1-1.7-2.1-3.3-2.2-5.5c-0.1-1.7-0.2-3.3,1.2-5.4
	c0,0,0.9-1.4,1.2-1.8c0,0,11.5-16.2,17.6-23.8l0.2-0.1l0.2,0.1C67.7,50.8,79.2,67,79.2,67c0.3,0.4,1.2,1.8,1.2,1.8
	c1.4,2.1,1.3,3.7,1.2,5.4c-0.1,2.2-1.2,3.8-2.2,5.5c-5.6,6.7-12,14.3-17.7,21L61.5,100.9 M84.4,102.9c-4.2,3.4-8.7,6.4-13.1,9.7
	c0,0-2.6,1.9-3.6,2.6l-0.6-0.1c0.1-3.9-1.1-8.5,1.9-11.2c4.4-5.1,9-10,12.8-15.5c0,0,3.9-5.6,5.7-8.3c0.6,0.1,0.8,0.8,0.9,1.3
	C90.3,88.6,90.9,95.7,84.4,102.9"/>
<g>
</g>
<g>
</g>
<g>
</g>
<g>
</g>
<g>
</g>
<g>
</g>
<g>
</g>
<g>
</g>
<g>
</g>
<g>
</g>
<g>
</g>
<g>
</g>
<g>
</g>
<g>
</g>
<g>
</g>
</svg>
