<svg id="Layer_1" data-name="Layer 1" xmlns="http://www.w3.org/2000/svg" width="626.67" height="111.12" viewBox="0 0 626.67 111.12">
  <title>Artboard 1</title>
  <g>
    <path d="M58.15,49.26,39,44c-10.57-3-15.47-7.54-15.47-14.35,0-9.76,9.23-14.15,18.38-14.15,10.74,0,18.27,4.22,22.36,12.55L65,29.39l15.3-6.12-.54-1.48C74.75,8,61.08.05,42.22.05c-21.19,0-36,12.66-36,30.77,0,15.17,7.68,24,24.91,28.79l19,5.09C60.13,67.72,64.4,72.28,64.4,80c0,11.4-11.71,15.45-21.75,15.45-12.72,0-22.25-6.06-26.08-16.61L16,77.22,0,83.35l.44,1.47c4.89,16.57,20.47,26.48,41.63,26.48,23.36,0,39.66-13.39,39.66-32.51C81.73,63.3,73.8,53.37,58.15,49.26Z" style="fill: red"/>
    <path d="M429.91,30.07c-16.17,0-33.58,10.06-33.58,32.12V80.46c0,18.72,13.35,30.81,34,30.81,16.18,0,33.55-10.09,33.55-32.26V61.88C463.91,42.87,450.25,30.07,429.91,30.07ZM413.62,61.31c0-10,6.09-16,16.29-16,10.39,0,16.59,5.75,16.59,15.42V79.9c0,10.4-5.74,16.13-16.14,16.13s-16.74-6-16.74-15.7v-19Z" style="fill: red"/>
    <path d="M178.91,30.07c-9.59,0-18.58,3.46-24.68,9.5-6.09-6-15-9.5-24.66-9.5-20.27,0-33.88,13.69-34,14v66.23h16.83l.13-59.22a27.53,27.53,0,0,1,17-5.81c10.2,0,16.27,6,16.27,16l0,49h16.86V61.87l0-.56c0-10,6.11-16,16.29-16,10.38,0,16.58,5.75,16.58,15.41V110.3H212.9V61.89C212.9,42.87,199.26,30.07,178.91,30.07Z" style="fill: red"/>
    <path d="M341.27,30.07c-20.38,0-33.85,13.69-34,14v66.23h17l0-59.22a28,28,0,0,1,17.4-5.81H342V30.44l-.34-.37Z" style="fill: red"/>
    <path d="M519.92,30.83c-.58-.13-1.15-.22-1.72-.29l-1.57-.21c-.82-.09-1.66-.13-2.5-.19l-1.83-.07c-20.3,0-33.88,13.69-34,14v66.28h16.91l.07-59.26A27.2,27.2,0,0,1,512,45.32c10.25.09,16.39,5.85,16.39,15.41v49.65h17.41V61.89C545.84,45.72,535.91,33.8,519.92,30.83Z" style="fill: red"/>
    <path d="M258.38,30c-12.17,0-22.93,5.43-28.71,14.56l-.41.63L243.51,53l.46-.13.2-.31c2.62-4.81,7.53-7.34,14.21-7.34,8.84,0,14.71,4.18,16.19,11.49-6.22,1.28-15.81,3.24-25.1,5.07-10.68,2.12-17.95,6.36-21.59,12.61-4.29,7.43-1.84,15.36-1.54,16.24l.16.51c2.94,8.61,9.78,15,19.21,18a38.47,38.47,0,0,0,12.66,2.14c20.38,0,33.84-13.7,34-14l0-35.49C292.39,42.76,278.74,30,258.38,30Zm17,60.3a25,25,0,0,1-6.68,3.81,28.64,28.64,0,0,1-10.1,1.86c-6.06,0-11.46-2-14.44-5.43a9.45,9.45,0,0,1-2.3-7.57c.27-1.93,2.3-4.63,10.51-6.45,5.22-1.15,10.85-2.21,16-3.18,2.43-.47,5-1,7-1.43Z" style="fill: red"/>
    <path d="M624.19,66.87c4.3-7.43,1.86-15.36,1.57-16.23l-.19-.51c-3-8.63-9.79-15.05-19.22-18A38.12,38.12,0,0,0,593.72,30l-.45,0v0c-16.18,0-33.66,10.2-33.66,32.25V79.55c0,19,13.74,31.76,34.07,31.76,12.19,0,22.94-5.44,28.71-14.56l.43-.64-14.25-7.85-.48.12-.18.33C605.3,93.52,600.36,96,593.68,96c-8.82,0-14.71-4.18-16.19-11.49,6.24-1.28,15.83-3.25,25.11-5.08C613.29,77.37,620.56,73.13,624.19,66.87ZM583.68,68c-2.45.44-4.74.87-6.75,1.29v-8c0-8.71,4.58-14.33,12.43-15.66a36.93,36.93,0,0,1,4.12-.33c6,0,11.44,2,14.42,5.44a9.4,9.4,0,0,1,2.3,7.57c-.25,1.93-2.3,4.61-10.5,6.45C594.46,66,588.83,67,583.68,68Z" style="fill: red"/>
    <polygon points="404.71 0 335.1 0 335.1 16.29 361.18 16.29 361.18 110.3 378.63 110.35 378.63 16.29 404.71 16.29 404.71 0" style="fill: red"/>
  </g>
</svg>
